# xmcd
#
# Track frame offsets:
#	150
#	24655
#	36322
#	52097
#	72304
#
# Disc length: 1325 seconds
#
# Revision: 1
# Processed by: cddbd v1.5.2PL0 Copyright (c) Steve Scherf et al.
# Submitted via: audiograbber 1.83.01
#
DISCID=45052b05
DTITLE=Evenfall - Evenfall
DYEAR=1997
DGENRE=Metal
TTITLE0=Conspectu mortis
TTITLE1=Fear
TTITLE2=Opus XIII
TTITLE3=Into the crypt
TTITLE4=Shadows
EXTD=
EXTT0=
EXTT1=
EXTT2=
EXTT3=
EXTT4=
PLAYORDER=
